<svg width="170" height="155" viewBox="0 0 170 155" fill="none" xmlns="http://www.w3.org/2000/svg">
<rect y="6" width="170" height="149" rx="16" fill="#242424"/>
<path d="M22.508 134L45.212 27.08H59.6L82.436 134H68.312L63.428 107.072H41.648L36.5 134H22.508ZM43.628 96.38H61.448L52.472 48.2L43.628 96.38ZM118.11 135.188C111.95 135.188 106.802 133.868 102.666 131.228C98.618 128.588 95.538 124.936 93.426 120.272C91.314 115.608 90.082 110.196 89.73 104.036L102.93 100.472C103.194 104.256 103.766 107.908 104.646 111.428C105.614 114.948 107.154 117.852 109.266 120.14C111.378 122.34 114.326 123.44 118.11 123.44C121.982 123.44 124.886 122.384 126.822 120.272C128.846 118.072 129.858 114.948 129.858 110.9C129.858 106.06 128.758 102.188 126.558 99.284C124.358 96.292 121.586 93.3 118.242 90.308L100.29 74.468C96.77 71.388 94.174 68.044 92.502 64.436C90.83 60.74 89.994 56.208 89.994 50.84C89.994 43.008 92.238 36.936 96.726 32.624C101.214 28.312 107.33 26.156 115.074 26.156C119.298 26.156 122.994 26.728 126.162 27.872C129.418 28.928 132.102 30.6 134.214 32.888C136.414 35.176 138.13 38.08 139.362 41.6C140.682 45.032 141.562 49.08 142.002 53.744L129.33 57.176C129.066 53.656 128.538 50.444 127.746 47.54C126.954 44.548 125.546 42.172 123.522 40.412C121.586 38.564 118.77 37.64 115.074 37.64C111.378 37.64 108.474 38.652 106.362 40.676C104.338 42.612 103.326 45.516 103.326 49.388C103.326 52.644 103.854 55.328 104.91 57.44C106.054 59.552 107.858 61.708 110.322 63.908L128.406 79.748C132.454 83.268 136.018 87.492 139.098 92.42C142.178 97.26 143.718 103.024 143.718 109.712C143.718 114.992 142.618 119.568 140.418 123.44C138.218 127.224 135.182 130.128 131.31 132.152C127.526 134.176 123.126 135.188 118.11 135.188Z" fill="#64EEBC"/>
</svg>
