<svg width="621" height="108" viewBox="0 0 621 108" fill="none" xmlns="http://www.w3.org/2000/svg">
<path d="M0.432 106L22.448 2.31999H36.4L58.544 106H44.848L40.112 79.888H18.992L14 106H0.432ZM20.912 69.52H38.192L29.488 22.8L20.912 69.52ZM93.137 107.152C87.1637 107.152 82.1717 105.872 78.161 103.312C74.2357 100.752 71.249 97.2107 69.201 92.688C67.153 88.1653 65.9583 82.9173 65.617 76.944L78.417 73.488C78.673 77.1573 79.2277 80.6987 80.081 84.112C81.0197 87.5253 82.513 90.3413 84.561 92.56C86.609 94.6933 89.4677 95.76 93.137 95.76C96.8917 95.76 99.7077 94.736 101.585 92.688C103.548 90.5547 104.529 87.5253 104.529 83.6C104.529 78.9067 103.462 75.152 101.329 72.336C99.1957 69.4347 96.5077 66.5333 93.265 63.632L75.857 48.272C72.4437 45.2853 69.9263 42.0427 68.305 38.544C66.6837 34.96 65.873 30.5653 65.873 25.36C65.873 17.7653 68.049 11.8773 72.401 7.696C76.753 3.51466 82.6837 1.424 90.193 1.424C94.289 1.424 97.873 1.97866 100.945 3.088C104.102 4.11199 106.705 5.73333 108.753 7.952C110.886 10.1707 112.55 12.9867 113.745 16.4C115.025 19.728 115.878 23.6533 116.305 28.176L104.017 31.504C103.761 28.0907 103.249 24.976 102.481 22.16C101.713 19.2587 100.348 16.9547 98.385 15.248C96.5077 13.456 93.777 12.56 90.193 12.56C86.609 12.56 83.793 13.5413 81.745 15.504C79.7823 17.3813 78.801 20.1973 78.801 23.952C78.801 27.1093 79.313 29.712 80.337 31.76C81.4463 33.808 83.1957 35.8987 85.585 38.032L103.121 53.392C107.046 56.8053 110.502 60.9013 113.489 65.68C116.476 70.3733 117.969 75.9627 117.969 82.448C117.969 87.568 116.902 92.0053 114.769 95.76C112.636 99.4293 109.692 102.245 105.937 104.208C102.268 106.171 98.001 107.152 93.137 107.152ZM140.581 106V13.072H123.045V2.31999H172.069V13.072H155.045V106H140.581ZM182.064 106V2.31999H202.928C209.84 2.31999 215.557 3.25866 220.08 5.13599C224.603 6.928 227.931 9.872 230.064 13.968C232.283 17.9787 233.392 23.2693 233.392 29.84C233.392 33.8507 232.965 37.52 232.112 40.848C231.259 44.0907 229.893 46.864 228.016 49.168C226.139 51.3867 223.664 53.008 220.592 54.032L235.312 106H221.36L207.792 57.36H196.528V106H182.064ZM196.528 46.992H202.032C206.128 46.992 209.456 46.48 212.016 45.456C214.576 44.432 216.453 42.6827 217.648 40.208C218.843 37.7333 219.44 34.2773 219.44 29.84C219.44 23.7813 218.331 19.4293 216.112 16.784C213.893 14.0533 209.499 12.688 202.928 12.688H196.528V46.992ZM242.807 106L264.823 2.31999H278.775L300.919 106H287.223L282.487 79.888H261.367L256.375 106H242.807ZM263.287 69.52H280.567L271.863 22.8L263.287 69.52ZM311.439 106V2.31999H325.903V95.632H352.399V106H311.439ZM420.876 107.536C413.025 107.536 406.796 106.128 402.188 103.312C397.665 100.411 394.465 96.4 392.588 91.28C390.711 86.0747 389.772 79.9733 389.772 72.976V35.6C389.772 28.432 390.711 22.288 392.588 17.168C394.465 11.9627 397.665 7.95199 402.188 5.13599C406.796 2.31999 413.025 0.911995 420.876 0.911995C428.556 0.911995 434.529 2.192 438.796 4.752C443.148 7.22666 446.22 10.7253 448.012 15.248C449.804 19.7707 450.7 24.976 450.7 30.864V39.824H428.3V29.456C428.3 27.408 428.172 25.4453 427.916 23.568C427.745 21.6907 427.148 20.1547 426.124 18.96C425.1 17.68 423.351 17.04 420.876 17.04C418.487 17.04 416.695 17.68 415.5 18.96C414.391 20.24 413.665 21.8613 413.324 23.824C413.068 25.7013 412.94 27.7067 412.94 29.84V78.608C412.94 80.912 413.111 83.0453 413.452 85.008C413.879 86.8853 414.647 88.4213 415.756 89.616C416.951 90.7253 418.657 91.28 420.876 91.28C423.265 91.28 424.972 90.6827 425.996 89.488C427.02 88.208 427.66 86.5867 427.916 84.624C428.172 82.6613 428.3 80.656 428.3 78.608V67.728H450.7V76.688C450.7 82.576 449.804 87.8667 448.012 92.56C446.305 97.168 443.276 100.837 438.924 103.568C434.657 106.213 428.641 107.536 420.876 107.536ZM463.433 106V2.31999H486.345V106H463.433ZM501.805 106V2.31999H517.933L539.181 52.24V2.31999H558.125V106H542.637L521.389 52.24V106H501.805ZM573.555 106V2.31999H620.147V17.936H596.467V43.664H614.515V59.536H596.467V90.512H620.403V106H573.555Z" fill="#64EEBC"/>
</svg>
